<svg xmlns="http://www.w3.org/2000/svg" viewBox="0 0 200 200" fill="none">
  <defs>
    <linearGradient id="bg" x1="0" y1="0" x2="200" y2="200" gradientUnits="userSpaceOnUse">
      <stop offset="0%" stop-color="#E8458B"/>
      <stop offset="50%" stop-color="#D4357A"/>
      <stop offset="100%" stop-color="#B8206A"/>
    </linearGradient>
    <linearGradient id="shine" x1="40" y1="40" x2="160" y2="160" gradientUnits="userSpaceOnUse">
      <stop offset="0%" stop-color="#fff" stop-opacity="0.25"/>
      <stop offset="50%" stop-color="#fff" stop-opacity="0"/>
      <stop offset="100%" stop-color="#fff" stop-opacity="0.08"/>
    </linearGradient>
  </defs>
  <!-- Main circle -->
  <circle cx="100" cy="100" r="96" fill="url(#bg)"/>
  <circle cx="100" cy="100" r="96" fill="url(#shine)"/>
  <circle cx="100" cy="100" r="88" fill="none" stroke="#FFD1E3" stroke-width="1.2" opacity="0.4"/>
  <!-- Decorative petals -->
  <g opacity="0.18" fill="#FFD1E3">
    <ellipse cx="100" cy="30" rx="7" ry="12"/>
    <ellipse cx="100" cy="30" rx="7" ry="12" transform="rotate(72 100 30)"/>
    <ellipse cx="100" cy="30" rx="7" ry="12" transform="rotate(144 100 30)"/>
    <ellipse cx="100" cy="30" rx="7" ry="12" transform="rotate(216 100 30)"/>
    <ellipse cx="100" cy="30" rx="7" ry="12" transform="rotate(288 100 30)"/>
  </g>
  <!-- A -->
  <path d="M56 106l10.5-30h5.2L82 106h-5.4l-2.6-7.8H63.8L61.2 106H56zm9.3-12.6h9.4L70 80.2l-4.7 13.2z" fill="white"/>
  <!-- Y -->
  <path d="M82 76h5.6l7 12.5L101.6 76h5.6l-10.4 18.3V106h-4.8V94.3L82 76z" fill="white"/>
  <!-- M -->
  <path d="M106 106V76h6.3l8.2 22.5L128.8 76H135v30h-4.4V83l-8.5 23h-3.4L110.4 83v23H106z" fill="white"/>
  <!-- S -->
  <path d="M139 97.8l4.3-1c.8 3.2 3.2 5.2 7 5.2 3.6 0 5.6-1.8 5.6-4.2 0-2.2-1.3-3.4-5.4-4.4-5.2-1.2-8.6-3.2-8.6-8 0-4.6 3.8-7.8 9.2-7.8 5 0 8.8 2.8 9.8 6.8l-4.2 1.2c-.8-2.8-2.8-4.2-5.8-4.2-3.2 0-5 1.6-5 3.8 0 2.4 1.6 3.4 5.8 4.4 5 1.2 8.2 3 8.2 8 0 5-4 8.4-9.8 8.4-5.6 0-9.8-3-11.1-8.2z" fill="white"/>
  <!-- Divider -->
  <line x1="52" y1="114" x2="148" y2="114" stroke="#FFD1E3" stroke-width="0.8" opacity="0.5"/>
  <!-- Bottom hearts -->
  <g fill="#FFD1E3" opacity="0.35" transform="translate(0,-2)">
    <path d="M78 126c0-2.5 2-4.5 4.5-2.5s4.5 0 4.5 2.5-4.5 7-4.5 7-4.5-4.5-4.5-7z"/>
    <path d="M113 126c0-2.5 2-4.5 4.5-2.5s4.5 0 4.5 2.5-4.5 7-4.5 7-4.5-4.5-4.5-7z"/>
  </g>
  <!-- S O C I A L in small -->
  <g fill="#FFD1E3" opacity="0.7" font-size="0">
    <!-- S -->
    <path d="M68 140.5c0-.2.1-.3.3-.3h.7c.3 0 .6.1.8.2.2.2.2.3.2.6h-.5c0-.2-.1-.3-.2-.4-.1-.1-.3-.1-.5-.1s-.3 0-.4.1c-.1.1-.1.2-.1.3 0 .2.1.3.4.3l.5.1c.5.1.7.4.7.8 0 .3-.1.5-.3.6-.2.2-.4.2-.8.2-.3 0-.6-.1-.8-.2-.2-.2-.3-.4-.3-.7h.5c0 .2.1.3.2.4.1.1.3.1.5.1s.3 0 .4-.1c.1-.1.1-.2.1-.3 0-.2-.1-.3-.5-.4l-.4-.1c-.4-.1-.7-.3-.7-.7z"/>
    <!-- O -->
    <circle cx="79" cy="141.2" r="1.3" fill="none" stroke="#FFD1E3" stroke-width="0.5"/>
    <!-- C -->
    <path d="M88.3 139.9c.7 0 1.2.4 1.3 1h-.5c-.1-.3-.4-.5-.8-.5-.6 0-1 .4-1 1s.4 1 1 1c.4 0 .7-.2.8-.5h.5c-.1.6-.6 1-1.3 1-.9 0-1.5-.6-1.5-1.5s.6-1.5 1.5-1.5z"/>
    <!-- I -->
    <rect x="96.5" y="140" width="0.5" height="2.5" fill="#FFD1E3"/>
    <!-- A -->
    <path d="M104 142.5l-.3-.8h-1.4l-.3.8h-.5l1.2-2.8h.6l1.2 2.8h-.5zm-1.5-1.2h1l-.5-1.3-.5 1.3z"/>
    <!-- L -->
    <path d="M111 140h.5v2.1h1.2v.4H111v-2.5z"/>
  </g>
  <!-- Sparkle dots -->
  <g fill="#FFD1E3" opacity="0.3">
    <circle cx="42" cy="90" r="2"/>
    <circle cx="158" cy="90" r="2"/>
    <circle cx="50" cy="60" r="1.5"/>
    <circle cx="150" cy="60" r="1.5"/>
    <circle cx="80" cy="155" r="1.5"/>
    <circle cx="100" cy="160" r="2"/>
    <circle cx="120" cy="155" r="1.5"/>
  </g>
</svg>
